<svg width="32" height="32" viewBox="0 0 32 32" fill="none" xmlns="http://www.w3.org/2000/svg">
<g clip-path="url(#clip0_1178_1443)">
<path d="M9.33301 23.9993C7.86634 23.9993 6.67967 25.1993 6.67967 26.666C6.67967 28.1327 7.86634 29.3327 9.33301 29.3327C10.7997 29.3327 11.9997 28.1327 11.9997 26.666C11.9997 25.1993 10.7997 23.9993 9.33301 23.9993ZM1.33301 2.66602V5.33268H3.99967L8.79967 15.4527L6.99967 18.7193C6.78634 19.0927 6.66634 19.5327 6.66634 19.9993C6.66634 21.466 7.86634 22.666 9.33301 22.666H25.333V19.9993H9.89301C9.70634 19.9993 9.55967 19.8527 9.55967 19.666L9.59967 19.506L10.7997 17.3327H20.733C21.733 17.3327 22.613 16.786 23.0663 15.9593L27.8397 7.30602C27.9463 7.11935 27.9997 6.89268 27.9997 6.66602C27.9997 5.93268 27.3997 5.33268 26.6663 5.33268H6.94634L5.69301 2.66602H1.33301ZM22.6663 23.9993C21.1997 23.9993 20.013 25.1993 20.013 26.666C20.013 28.1327 21.1997 29.3327 22.6663 29.3327C24.133 29.3327 25.333 28.1327 25.333 26.666C25.333 25.1993 24.133 23.9993 22.6663 23.9993Z" fill="#FF6C4D"/>
</g>
<defs>
<clipPath id="clip0_1178_1443">
<rect width="32" height="32" fill="white"/>
</clipPath>
</defs>
</svg>
