<svg width="125" height="23" viewBox="0 0 125 23" fill="none" xmlns="http://www.w3.org/2000/svg">
<path d="M117.448 16.9819H113.128V21.9997H106.481V1.23047H116.949C121.712 1.23047 124.094 3.78924 124.094 8.90678C124.094 11.7203 123.473 13.8028 122.233 15.1542C121.768 15.6637 121.125 16.0957 120.305 16.4502C119.486 16.8046 118.533 16.9819 117.448 16.9819ZM113.128 6.54739V11.6649H114.656C115.454 11.6649 116.03 11.5874 116.384 11.4323C116.761 11.2551 116.949 10.8674 116.949 10.2692V7.94308C116.949 7.34493 116.761 6.96831 116.384 6.81324C116.03 6.63601 115.454 6.54739 114.656 6.54739H113.128Z" fill="url(#paint0_linear_1184_1469)"/>
<path d="M92.444 1.23047V16.8157H94.8034C95.6452 16.8157 96.2212 16.716 96.5314 16.5166C96.8415 16.2951 96.9966 15.8077 96.9966 15.0545V1.23047H103.643V12.8945C103.643 14.7775 103.521 16.2951 103.277 17.4471C103.034 18.5991 102.579 19.5739 101.915 20.3714C101.25 21.1689 100.342 21.7228 99.1898 22.0329C98.0378 22.3431 96.5425 22.4982 94.7037 22.4982C92.8649 22.4982 91.3695 22.3431 90.2175 22.0329C89.0877 21.7228 88.1905 21.1689 87.5258 20.3714C86.8612 19.5739 86.4071 18.5991 86.1634 17.4471C85.9197 16.2951 85.7979 14.7775 85.7979 12.8945V1.23047H92.444Z" fill="url(#paint1_linear_1184_1469)"/>
<path d="M73.8477 15.3538V11.7648C73.8477 11.1667 74.0249 10.7901 74.3793 10.635C74.756 10.4578 75.343 10.3691 76.1406 10.3691H83.8169V13.9581C83.8169 14.5562 83.6286 14.9439 83.252 15.1211C82.8975 15.2762 82.3215 15.3538 81.524 15.3538H73.8477Z" fill="url(#paint2_linear_1184_1469)"/>
<path d="M66.0443 16.9819H61.7243V21.9997H55.0781V1.23047H65.5458C70.3089 1.23047 72.6904 3.78924 72.6904 8.90678C72.6904 11.7203 72.0701 13.8028 70.8295 15.1542C70.3643 15.6637 69.7218 16.0957 68.9021 16.4502C68.0824 16.8046 67.1298 16.9819 66.0443 16.9819ZM61.7243 6.54739V11.6649H63.2529C64.0504 11.6649 64.6264 11.5874 64.9809 11.4323C65.3575 11.2551 65.5458 10.8674 65.5458 10.2692V7.94308C65.5458 7.34493 65.3575 6.96831 64.9809 6.81324C64.6264 6.63601 64.0504 6.54739 63.2529 6.54739H61.7243Z" fill="url(#paint3_linear_1184_1469)"/>
<path d="M50.7484 14.1572H44.1022V16.6828H52.2438V21.9997H37.4561V1.23047H52.0776L51.2468 6.54739H44.1022V9.33878H50.7484V14.1572Z" fill="url(#paint4_linear_1184_1469)"/>
<path d="M35.6288 6.54739H30.8103V21.9997H24.1642V6.54739H19.3457V1.23047H35.6288V6.54739Z" fill="url(#paint5_linear_1184_1469)"/>
<path d="M0.831055 21.6346L1.76152 16.1515C3.79967 16.661 5.62736 16.9158 7.24459 16.9158C8.88398 16.9158 10.2021 16.8493 11.1991 16.7164V15.0549L8.20829 14.789C5.50552 14.5453 3.64459 13.9029 2.62552 12.8617C1.62859 11.7983 1.13013 10.2364 1.13013 8.17612C1.13013 5.34042 1.73936 3.39088 2.95782 2.3275C4.19844 1.26411 6.29198 0.732422 9.23844 0.732422C12.1849 0.732422 14.8434 1.00935 17.2138 1.56319L16.3831 6.88012C14.3227 6.54781 12.6723 6.38165 11.4317 6.38165C10.1911 6.38165 9.13875 6.43704 8.27475 6.54781V8.17612L10.6674 8.40873C13.5695 8.69673 15.5744 9.39458 16.6821 10.5023C17.7898 11.5878 18.3437 13.1053 18.3437 15.0549C18.3437 16.4506 18.1554 17.6358 17.7787 18.6106C17.4021 19.5632 16.948 20.2943 16.4163 20.8038C15.9067 21.2912 15.1757 21.6678 14.2231 21.9337C13.2704 22.1995 12.4286 22.3546 11.6975 22.3989C10.9886 22.4653 10.036 22.4986 8.83967 22.4986C5.95967 22.4986 3.29013 22.2106 0.831055 21.6346Z" fill="url(#paint6_linear_1184_1469)"/>
<defs>
<linearGradient id="paint0_linear_1184_1469" x1="61.3639" y1="4.31548" x2="60.5488" y2="18.2827" gradientUnits="userSpaceOnUse">
<stop stop-color="#FD7D54"/>
<stop offset="1" stop-color="#FF5959"/>
</linearGradient>
<linearGradient id="paint1_linear_1184_1469" x1="61.3639" y1="4.31548" x2="60.5488" y2="18.2827" gradientUnits="userSpaceOnUse">
<stop stop-color="#FD7D54"/>
<stop offset="1" stop-color="#FF5959"/>
</linearGradient>
<linearGradient id="paint2_linear_1184_1469" x1="61.3636" y1="4.31573" x2="60.5485" y2="18.2829" gradientUnits="userSpaceOnUse">
<stop stop-color="#FD7D54"/>
<stop offset="1" stop-color="#FF5959"/>
</linearGradient>
<linearGradient id="paint3_linear_1184_1469" x1="61.3644" y1="4.31548" x2="60.5493" y2="18.2827" gradientUnits="userSpaceOnUse">
<stop stop-color="#FD7D54"/>
<stop offset="1" stop-color="#FF5959"/>
</linearGradient>
<linearGradient id="paint4_linear_1184_1469" x1="61.3636" y1="4.31548" x2="60.5485" y2="18.2827" gradientUnits="userSpaceOnUse">
<stop stop-color="#FD7D54"/>
<stop offset="1" stop-color="#FF5959"/>
</linearGradient>
<linearGradient id="paint5_linear_1184_1469" x1="61.3641" y1="4.31548" x2="60.549" y2="18.2827" gradientUnits="userSpaceOnUse">
<stop stop-color="#FD7D54"/>
<stop offset="1" stop-color="#FF5959"/>
</linearGradient>
<linearGradient id="paint6_linear_1184_1469" x1="61.3639" y1="4.31591" x2="60.5488" y2="18.2831" gradientUnits="userSpaceOnUse">
<stop stop-color="#FD7D54"/>
<stop offset="1" stop-color="#FF5959"/>
</linearGradient>
</defs>
</svg>
